<svg width="132" height="132" viewBox="0 0 132 132" fill="none" xmlns="http://www.w3.org/2000/svg">
<path d="M0.603492 58.4662C11.6975 58.1201 22.7063 58.5322 33.6853 59.2096C40.7808 59.604 47.8739 60.1901 54.9373 60.8688C47.8273 57.018 40.7173 53.1672 33.6348 49.2427C22.9909 43.3633 12.3703 37.4482 1.84685 31.352C12.7356 36.7599 23.5294 42.3299 34.3167 47.9567C42.4036 52.1668 50.463 56.4506 58.5223 60.7344L56.5625 58.1918C54.1971 54.9894 51.7684 51.8374 49.4872 48.5678C44.8596 42.0978 40.3817 35.4912 36.3465 28.5313C42.237 34.0107 47.6659 39.8414 52.9661 45.7919C55.6478 48.742 58.1819 51.8098 60.7793 54.8271L63.2272 57.8084C64.2635 49.4416 65.4347 41.0708 66.8501 32.7466C68.6268 21.8912 70.6878 11.0677 73.469 0.325144C73.8151 11.4192 73.4031 22.428 72.7257 33.407C72.3313 40.5024 71.7451 47.5955 71.0664 54.659C74.9172 47.549 78.768 40.439 82.6925 33.3564L91.5463 17.4234C94.5586 12.1384 97.5162 6.82812 100.581 1.58745C97.895 7.04344 95.0995 12.4487 92.3798 17.8625L83.9954 34.0595C79.7853 42.1463 75.5036 50.1868 71.2198 58.2461C75.2298 55.1845 79.2544 52.1629 83.3675 49.2089C89.8374 44.5812 96.4441 40.1033 103.404 36.0682C97.9245 41.9587 92.1107 47.4086 86.1433 52.6877C82.2002 56.1791 78.1898 59.5861 74.1479 62.932C82.5147 63.9684 90.8666 65.1374 99.1908 66.5528C110.046 68.3295 120.87 70.3905 131.61 73.1907C120.516 73.5368 109.505 73.1437 98.5261 72.4663C91.4328 72.0529 84.3565 71.4879 77.2931 70.8092C84.4031 74.66 91.4941 78.5086 98.5788 82.4142L114.512 91.268C119.797 94.2803 125.107 97.2378 130.348 100.303C124.892 97.6167 119.487 94.8212 114.073 92.1015L97.8758 83.717C89.7889 79.5069 81.7485 75.2253 73.6891 70.9415C76.7507 74.9515 79.7723 78.9761 82.7264 83.0891C87.354 89.5591 91.8319 96.1657 95.8671 103.126C89.9765 97.6462 84.5266 91.8323 79.2475 85.865C75.7562 81.9219 72.3491 77.9115 69.0032 73.8696C67.9669 82.2364 66.7978 90.5882 65.3824 98.9124C63.6057 109.768 61.5447 120.591 58.7446 131.332C58.3985 120.238 58.7915 109.227 59.4689 98.2478C59.8823 91.1545 60.4473 84.0782 61.1261 77.0147C57.2753 84.1247 53.4245 91.2348 49.5211 98.3005C43.6417 108.944 37.7265 119.565 31.6304 130.088C37.0382 119.2 42.6082 108.406 48.235 97.6185C52.4451 89.5317 56.7289 81.4723 61.0127 73.4129L58.4701 75.3727C55.2677 77.7382 52.1158 80.1669 48.8461 82.448C42.3762 87.0756 35.7695 91.5536 28.8096 95.5887C34.2891 89.6982 40.1219 84.2504 46.0703 78.9692C49.0203 76.2875 52.0881 73.7533 55.1054 71.1559L58.0868 68.7081C49.72 67.6717 41.3491 66.5006 33.0249 65.0851C22.1695 63.3084 11.346 61.2475 0.603492 58.4662Z" fill="#201F24"/>
</svg>
