<svg width="310" height="135" viewBox="0 0 310 135" fill="none" xmlns="http://www.w3.org/2000/svg">
<path d="M1.77301 134.337C1.87842 134.592 2.17077 134.714 2.42601 134.608L6.58526 132.891C6.84049 132.785 6.96195 132.493 6.85654 132.238C6.75113 131.982 6.45878 131.861 6.20354 131.966L2.50643 133.493L0.979559 129.796C0.87415 129.541 0.581793 129.419 0.326561 129.525C0.0713276 129.63 -0.0501287 129.923 0.055279 130.178L1.77301 134.337ZM2.69689 134.338C10.6082 115.295 26.3459 98.4835 45.4908 84.7925C64.6316 71.1044 87.1447 60.5596 108.553 54.0366C129.971 47.5106 150.232 45.0256 164.88 47.4072C172.203 48.5979 178.073 50.9971 181.994 54.6655C185.896 58.3164 187.91 63.2628 187.463 69.6667L188.461 69.7363C188.927 63.0555 186.816 57.8074 182.677 53.9353C178.557 50.0807 172.47 47.6283 165.04 46.4202C150.18 44.004 129.751 46.5321 108.261 53.0801C86.7608 59.6311 64.1475 70.2212 44.9091 83.9791C25.675 97.7339 9.78096 114.68 1.77341 133.954L2.69689 134.338ZM187.463 69.6667C187.236 72.9185 186.842 75.4172 186.351 77.254C185.856 79.1073 185.276 80.2262 184.722 80.7836C184.453 81.055 184.211 81.1709 184.007 81.2018C183.808 81.2319 183.587 81.1895 183.335 81.0356C182.804 80.7115 182.213 79.9363 181.671 78.6672C179.512 73.6217 178.667 62.1065 183.308 49.4376C187.938 36.8 198.02 23.0413 217.669 13.4906C237.328 3.93475 266.595 -1.42239 309.603 2.82109L309.701 1.82593C266.577 -2.429 237.11 2.92922 217.232 12.5912C197.343 22.2583 187.085 36.2199 182.369 49.0937C177.664 61.9362 178.468 73.7236 180.751 79.0605C181.319 80.387 182.013 81.3998 182.814 81.889C183.227 82.1417 183.684 82.2621 184.157 82.1905C184.626 82.1196 185.053 81.8691 185.432 81.4886C186.174 80.742 186.809 79.4149 187.317 77.5124C187.831 75.5934 188.231 73.0267 188.461 69.7363L187.463 69.6667Z" fill="#171717"/>
</svg>
